<svg xmlns="http://www.w3.org/2000/svg" viewBox="0 0 120 120" fill="none" shape-rendering="geometricPrecision">
  <rect width="120" height="120" fill="#0b4f6c"/>
  <path d="M22 60C22 44 36 32 60 32C84 32 100 45 100 60C100 75 84 88 60 88C36 88 22 76 22 60Z" fill="#ff8a00"/>
  <path d="M22 60L7 48V72L22 60Z" fill="#ff8a00"/>
  <rect x="44" y="33" width="10" height="54" rx="5" fill="#fff"/>
  <rect x="63" y="32" width="10" height="56" rx="5" fill="#fff"/>
  <path d="M35 53C40 50 45 50 50 53" stroke="#fff" stroke-width="4" stroke-linecap="round"/>
  <path d="M35 67C40 64 45 64 50 67" stroke="#fff" stroke-width="4" stroke-linecap="round"/>
  <circle cx="78" cy="54" r="5" fill="#fff"/>
  <circle cx="79" cy="54" r="2" fill="#111"/>
  <path d="M69 67C74 71 81 71 86 67" stroke="#5d2d00" stroke-width="3" stroke-linecap="round"/>
  <circle cx="20" cy="22" r="3" fill="#8be9fd" opacity="0.8"/>
  <circle cx="29" cy="17" r="2" fill="#8be9fd" opacity="0.7"/>
  <circle cx="13" cy="30" r="2" fill="#8be9fd" opacity="0.6"/>
</svg>
