<svg xmlns="http://www.w3.org/2000/svg" viewBox="0 0 120 120" fill="none" shape-rendering="geometricPrecision">
  <rect width="120" height="120" fill="#0f766e"/>
  <circle cx="60" cy="60" r="30" fill="#fcd34d"/>
  <path d="M30 60L14 48V72L30 60Z" fill="#fcd34d"/>
  <path d="M90 60L103 52V68L90 60Z" fill="#fcd34d"/>
  <circle cx="73" cy="53" r="6" fill="#fff"/>
  <circle cx="74" cy="53" r="2.5" fill="#111"/>
  <path d="M62 70C66 73 72 73 76 70" stroke="#92400e" stroke-width="3" stroke-linecap="round"/>
  <circle cx="50" cy="49" r="3" fill="#f59e0b"/>
  <circle cx="44" cy="61" r="3" fill="#f59e0b"/>
  <circle cx="52" cy="72" r="3" fill="#f59e0b"/>
  <circle cx="63" cy="42" r="2" fill="#92400e"/>
  <circle cx="72" cy="41" r="2" fill="#92400e"/>
  <circle cx="82" cy="47" r="2" fill="#92400e"/>
  <circle cx="86" cy="58" r="2" fill="#92400e"/>
  <circle cx="82" cy="71" r="2" fill="#92400e"/>
  <circle cx="71" cy="79" r="2" fill="#92400e"/>
  <circle cx="58" cy="80" r="2" fill="#92400e"/>
  <circle cx="45" cy="76" r="2" fill="#92400e"/>
  <circle cx="37" cy="66" r="2" fill="#92400e"/>
  <circle cx="36" cy="53" r="2" fill="#92400e"/>
  <circle cx="44" cy="43" r="2" fill="#92400e"/>
</svg>
